<svg width="26" height="25" viewBox="0 0 26 25" fill="none" xmlns="http://www.w3.org/2000/svg">
<path d="M23.1562 4.6875H16.125C15.5186 4.6875 14.9205 4.82869 14.3781 5.09989C13.8357 5.3711 13.3639 5.76486 13 6.25C12.6361 5.76486 12.1643 5.3711 11.6219 5.09989C11.0795 4.82869 10.4814 4.6875 9.875 4.6875H2.84375C2.63655 4.6875 2.43784 4.76981 2.29132 4.91632C2.14481 5.06284 2.0625 5.26155 2.0625 5.46875V19.5312C2.0625 19.7385 2.14481 19.9372 2.29132 20.0837C2.43784 20.2302 2.63655 20.3125 2.84375 20.3125H9.875C10.4966 20.3125 11.0927 20.5594 11.5323 20.999C11.9718 21.4385 12.2188 22.0346 12.2188 22.6562C12.2188 22.8635 12.3011 23.0622 12.4476 23.2087C12.5941 23.3552 12.7928 23.4375 13 23.4375C13.2072 23.4375 13.4059 23.3552 13.5524 23.2087C13.6989 23.0622 13.7812 22.8635 13.7812 22.6562C13.7812 22.0346 14.0282 21.4385 14.4677 20.999C14.9073 20.5594 15.5034 20.3125 16.125 20.3125H23.1562C23.3635 20.3125 23.5622 20.2302 23.7087 20.0837C23.8552 19.9372 23.9375 19.7385 23.9375 19.5312V5.46875C23.9375 5.26155 23.8552 5.06284 23.7087 4.91632C23.5622 4.76981 23.3635 4.6875 23.1562 4.6875ZM9.875 18.75H3.625V6.25H9.875C10.4966 6.25 11.0927 6.49693 11.5323 6.93647C11.9718 7.37601 12.2188 7.97215 12.2188 8.59375V19.5312C11.5432 19.0229 10.7204 18.7487 9.875 18.75ZM22.375 18.75H16.125C15.2796 18.7487 14.4568 19.0229 13.7812 19.5312V8.59375C13.7812 7.97215 14.0282 7.37601 14.4677 6.93647C14.9073 6.49693 15.5034 6.25 16.125 6.25H22.375V18.75ZM16.125 8.59375H20.0312C20.2385 8.59375 20.4372 8.67606 20.5837 8.82257C20.7302 8.96909 20.8125 9.1678 20.8125 9.375C20.8125 9.5822 20.7302 9.78091 20.5837 9.92743C20.4372 10.0739 20.2385 10.1562 20.0312 10.1562H16.125C15.9178 10.1562 15.7191 10.0739 15.5726 9.92743C15.4261 9.78091 15.3438 9.5822 15.3438 9.375C15.3438 9.1678 15.4261 8.96909 15.5726 8.82257C15.7191 8.67606 15.9178 8.59375 16.125 8.59375ZM20.8125 12.5C20.8125 12.7072 20.7302 12.9059 20.5837 13.0524C20.4372 13.1989 20.2385 13.2812 20.0312 13.2812H16.125C15.9178 13.2812 15.7191 13.1989 15.5726 13.0524C15.4261 12.9059 15.3438 12.7072 15.3438 12.5C15.3438 12.2928 15.4261 12.0941 15.5726 11.9476C15.7191 11.8011 15.9178 11.7188 16.125 11.7188H20.0312C20.2385 11.7188 20.4372 11.8011 20.5837 11.9476C20.7302 12.0941 20.8125 12.2928 20.8125 12.5ZM20.8125 15.625C20.8125 15.8322 20.7302 16.0309 20.5837 16.1774C20.4372 16.3239 20.2385 16.4062 20.0312 16.4062H16.125C15.9178 16.4062 15.7191 16.3239 15.5726 16.1774C15.4261 16.0309 15.3438 15.8322 15.3438 15.625C15.3438 15.4178 15.4261 15.2191 15.5726 15.0726C15.7191 14.9261 15.9178 14.8438 16.125 14.8438H20.0312C20.2385 14.8438 20.4372 14.9261 20.5837 15.0726C20.7302 15.2191 20.8125 15.4178 20.8125 15.625Z" fill="black" fill-opacity="0.53"/>
</svg>
