<svg width="116" height="20" viewBox="0 0 116 20" fill="none" xmlns="http://www.w3.org/2000/svg">
<mask id="mask0_1_2899" style="mask-type:alpha" maskUnits="userSpaceOnUse" x="0" y="0" width="116" height="20">
<path d="M9.6 0.791504C14.88 0.791504 19.2 5.1115 19.2 10.3915V19.9915H17.568V10.3915C17.568 5.9995 13.992 2.4235 9.6 2.4235C5.184 2.4235 1.608 5.9995 1.608 10.3915V19.9915H0V10.3915C0 5.1115 4.296 0.791504 9.6 0.791504Z" fill="black"/>
<path d="M24 10.3915C24 5.1115 28.296 0.791504 33.6 0.791504H43.2V2.4235H33.6C29.448 2.4235 26.04 5.5675 25.632 9.5995H43.2V11.2075H25.632C26.04 15.2395 29.448 18.3835 33.6 18.3835H43.2V19.9915H33.6C28.296 19.9915 24 15.6955 24 10.3915Z" fill="black"/>
<path d="M65.568 10.3915V0.791504H67.2V10.3915C67.2 15.6955 62.88 19.9915 57.6 19.9915C52.296 19.9915 48 15.6955 48 10.3915V0.791504H49.608V10.3915C49.608 14.8075 53.184 18.3835 57.6 18.3835C61.992 18.3835 65.568 14.8075 65.568 10.3915Z" fill="black"/>
<path d="M91.2 5.9995C91.2 7.8475 90.216 9.4795 88.752 10.3915C90.216 11.3275 91.2 12.9355 91.2 14.8075V19.9915H89.568V14.8075C89.568 12.8155 87.96 11.2075 85.992 11.2075H73.608V19.9915H72V0.791504H85.992C88.848 0.791504 91.2 3.1435 91.2 5.9995ZM73.608 2.4235V9.5995H85.992C87.96 9.5995 89.568 7.9915 89.568 5.9995C89.568 4.0315 87.96 2.4235 85.992 2.4235H73.608Z" fill="black"/>
<path d="M105.6 0.791504C110.88 0.791504 115.2 5.1115 115.2 10.3915C115.2 15.6955 110.88 19.9915 105.6 19.9915C100.296 19.9915 96 15.6955 96 10.3915C96 5.1115 100.296 0.791504 105.6 0.791504ZM105.6 18.3835C109.992 18.3835 113.568 14.8075 113.568 10.3915C113.568 5.9995 109.992 2.4235 105.6 2.4235C101.184 2.4235 97.608 5.9995 97.608 10.3915C97.608 14.8075 101.184 18.3835 105.6 18.3835ZM106.8 10.3915C106.8 11.0635 106.248 11.6155 105.6 11.6155C104.928 11.6155 104.376 11.0635 104.376 10.3915C104.376 9.7435 104.928 9.1915 105.6 9.1915C106.248 9.1915 106.8 9.7435 106.8 10.3915Z" fill="black"/>
</mask>
<g mask="url(#mask0_1_2899)">
<rect x="-1.39844" y="-2.00928" width="96" height="25" fill="black"/>
<rect x="94.6016" y="-2.00928" width="26" height="29" fill="#2596FF"/>
</g>
</svg>
