<svg width="346" height="258" viewBox="0 0 346 258" fill="none" xmlns="http://www.w3.org/2000/svg">
<g clip-path="url(#clip0_2002_165)">
<rect width="346" height="258" rx="12" fill="url(#paint0_linear_2002_165)"/>
<g filter="url(#filter0_i_2002_165)">
<path d="M178 232.777C178 209.468 159.275 190.554 136.199 190.554C128.027 190.554 120.414 192.959 113.976 197.057C112.33 184.497 101.718 174.817 88.8431 174.817C80.7593 174.817 73.5574 178.647 68.9129 184.615C60.7409 154.299 33.3148 132 0.685716 132C-23.3599 132 -44.5835 144.115 -57.3706 162.643C-61.8387 158.723 -67.6591 156.318 -74.0379 156.318C-88.0596 156.318 -99.4063 167.809 -99.4063 181.943C-99.4063 185.031 -98.8478 187.971 -97.8484 190.732C-98.9654 190.643 -100.053 190.554 -101.199 190.554C-124.275 190.554 -143 209.468 -143 232.777C-143 256.086 -124.275 275 -101.199 275H137.375V274.941C159.922 274.317 178 255.7 178 232.777Z" fill="white"/>
</g>
<g filter="url(#filter1_i_2002_165)">
<path d="M522 235.777C522 212.468 503.275 193.554 480.199 193.554C472.027 193.554 464.414 195.959 457.976 200.057C456.33 187.497 445.718 177.817 432.843 177.817C424.759 177.817 417.557 181.647 412.913 187.615C404.741 157.299 377.315 135 344.686 135C320.64 135 299.416 147.115 286.629 165.643C282.161 161.723 276.341 159.318 269.962 159.318C255.94 159.318 244.594 170.809 244.594 184.943C244.594 188.031 245.152 190.971 246.152 193.732C245.035 193.643 243.947 193.554 242.801 193.554C219.725 193.554 201 212.468 201 235.777C201 259.086 219.725 278 242.801 278H481.375V277.941C503.922 277.317 522 258.7 522 235.777Z" fill="white"/>
</g>
<path d="M351 72.5042C351 68.9182 348.258 66.0083 344.88 66.0083C343.683 66.0083 342.568 66.3783 341.626 67.0087C341.385 65.0764 339.831 63.5872 337.946 63.5872C336.762 63.5872 335.708 64.1765 335.028 65.0947C333.831 60.4306 329.816 57 325.038 57C321.517 57 318.41 58.8638 316.538 61.7143C315.883 61.1113 315.031 60.7413 314.097 60.7413C312.044 60.7413 310.383 62.5091 310.383 64.6836C310.383 65.1586 310.465 65.6109 310.611 66.0357C310.447 66.022 310.288 66.0083 310.12 66.0083C306.742 66.0083 304 68.9182 304 72.5042C304 76.0901 306.742 79 310.12 79H345.052V78.9909C348.353 78.8949 351 76.0307 351 72.5042Z" fill="white" fill-opacity="0.29"/>
<path d="M87 45.2562C87 39.8773 83.15 35.5125 78.4055 35.5125C76.7253 35.5125 75.1599 36.0675 73.8363 37.0131C73.4978 34.1146 71.3159 31.8808 68.6687 31.8808C67.0066 31.8808 65.5258 32.7647 64.5709 34.142C62.8907 27.146 57.2517 22 50.5429 22C45.5989 22 41.2352 24.7957 38.606 29.0714C37.6874 28.1669 36.4907 27.6119 35.1791 27.6119C32.2962 27.6119 29.9632 30.2637 29.9632 33.5253C29.9632 34.238 30.078 34.9163 30.2835 35.5536C30.0538 35.533 29.8302 35.5125 29.5945 35.5125C24.85 35.5125 21 39.8773 21 45.2562C21 50.6352 24.85 55 29.5945 55H78.6473V54.9863C83.283 54.8424 87 50.5461 87 45.2562Z" fill="white" fill-opacity="0.29"/>
<g filter="url(#filter2_f_2002_165)">
<path d="M374.068 216.414C534.311 274.025 58.2101 351.458 48.3757 352.077L-93.9961 329.759C-109.615 310.349 -31.8614 218.149 67.1769 238.302C190.975 263.494 213.825 158.804 374.068 216.414Z" fill="url(#paint1_radial_2002_165)"/>
<path d="M374.068 216.414C534.311 274.025 58.2101 351.458 48.3757 352.077L-93.9961 329.759C-109.615 310.349 -31.8614 218.149 67.1769 238.302C190.975 263.494 213.825 158.804 374.068 216.414Z" stroke="black"/>
</g>
<path d="M209.918 47.5957C209.918 43.4441 206.524 40.0777 202.337 40.0777H202.216C202.88 38.8435 203.258 37.4344 203.258 35.9388C203.258 31.0736 199.281 27.1297 194.374 27.1297C193.936 27.1297 193.507 27.1623 193.086 27.2235C193.115 26.9579 193.132 26.6891 193.132 26.4161C193.132 22.3499 189.808 19.0541 185.708 19.0541C183.552 19.0541 181.612 19.9658 180.255 21.4214C179.215 18.602 176.485 16.5889 173.281 16.5889C170.444 16.5889 167.979 18.1667 166.729 20.4865C165.471 19.5864 163.927 19.0541 162.256 19.0541C158.027 19.0541 154.598 22.4543 154.598 26.648C154.598 26.8188 154.605 26.9874 154.617 27.155C154.409 27.1402 154.199 27.1307 153.987 27.1307C149.08 27.1307 145.103 31.0747 145.103 35.9398C145.103 37.4396 145.482 38.8509 146.149 40.0872C142.103 40.2442 138.871 43.5453 138.871 47.5968C138.871 50.8177 140.914 53.5643 143.785 54.6352C144.747 59.7269 149.249 63.5813 154.664 63.5813C158.852 63.5813 162.497 61.2742 164.377 57.8719C165.61 58.9322 167.218 59.5752 168.978 59.5752C171.968 59.5752 174.52 57.7233 175.537 55.1147H202.339C206.526 55.1147 209.92 51.7494 209.92 47.5968L209.918 47.5957Z" fill="white"/>
<path d="M175.042 42.2577H164.36C164.302 42.2577 164.254 42.2103 164.254 42.1523C164.254 42.0943 164.302 42.0469 164.36 42.0469H175.042C177.211 42.0469 178.976 40.2973 178.976 38.1461C178.976 35.995 177.295 34.433 175.231 34.433H162.899C160.717 34.433 158.942 32.6729 158.942 30.5091C158.942 28.3453 160.717 26.5851 162.899 26.5851H166.825C169.212 26.5851 171.426 25.2086 172.467 23.0775C172.895 22.1995 173.122 21.2204 173.122 20.2455V11.215C173.122 11.1571 173.169 11.1096 173.228 11.1096C173.286 11.1096 173.334 11.1571 173.334 11.215V20.2444C173.334 21.251 173.1 22.2628 172.658 23.1692C171.583 25.372 169.293 26.7949 166.825 26.7949H162.899C160.834 26.7949 159.154 28.4612 159.154 30.508C159.154 32.5548 160.835 34.2211 162.899 34.2211H175.231C177.413 34.2211 179.188 35.9813 179.188 38.1451C179.188 40.3089 177.328 42.2566 175.042 42.2566V42.2577Z" fill="black"/>
<path d="M153.364 68.9313C153.305 68.9313 153.257 68.8839 153.257 68.8259V57.5484C153.257 55.3878 155.03 53.6308 157.208 53.6308H163.535C165.596 53.6308 167.273 51.9676 167.273 49.924C167.273 47.8803 165.596 46.2172 163.535 46.2172H157.208C155.033 46.2172 153.265 44.4665 153.257 42.3122V42.2985C153.265 40.1442 155.034 38.3935 157.208 38.3935H171.663C171.721 38.3935 171.769 38.441 171.769 38.4989C171.769 38.5569 171.721 38.6043 171.663 38.6043H157.208C155.149 38.6043 153.473 40.2633 153.47 42.3048C153.474 44.3464 155.149 46.0053 157.208 46.0053H163.535C165.714 46.0053 167.486 47.7633 167.486 49.9229C167.486 52.0825 165.713 53.8405 163.535 53.8405H157.208C155.147 53.8405 153.47 55.5037 153.47 57.5474V68.8249C153.47 68.8828 153.422 68.9303 153.364 68.9303V68.9313Z" fill="black"/>
<path d="M159.464 50.1727H149.314C146.393 50.1727 144.017 47.816 144.017 44.9197C144.017 44.8617 144.064 44.8143 144.123 44.8143C144.181 44.8143 144.229 44.8617 144.229 44.9197C144.229 47.7001 146.51 49.9619 149.314 49.9619H159.464C159.523 49.9619 159.571 50.0093 159.571 50.0673C159.571 50.1253 159.523 50.1727 159.464 50.1727Z" fill="black"/>
<path d="M155.117 34.8583H154.599C152.178 34.8583 150.21 32.9064 150.21 30.5065C150.21 30.4485 150.258 30.4011 150.316 30.4011C150.375 30.4011 150.423 30.4485 150.423 30.5065C150.423 32.7904 152.296 34.6475 154.599 34.6475H155.117C155.176 34.6475 155.223 34.6949 155.223 34.7529C155.223 34.8109 155.176 34.8583 155.117 34.8583Z" fill="black"/>
<path d="M180.733 29.9674H169.064C169.005 29.9674 168.958 29.92 168.958 29.862C168.958 29.804 169.005 29.7566 169.064 29.7566H180.733C182.985 29.7566 185.049 28.5371 186.122 26.5736C187.163 24.6659 187.714 22.5105 187.714 20.3415V11.2963C187.714 11.2383 187.762 11.1909 187.82 11.1909C187.879 11.1909 187.926 11.2383 187.926 11.2963V20.3415C187.926 22.5453 187.367 24.7355 186.308 26.6737C185.198 28.7047 183.062 29.9674 180.732 29.9674H180.733Z" fill="black"/>
<path d="M202.618 49.5504H184.623C182.536 49.5504 180.839 47.8672 180.839 45.7983C180.839 43.7293 182.536 42.0461 184.623 42.0461H193.23C195.199 42.0461 196.801 40.4578 196.801 38.5048V38.3478C196.801 36.3948 195.199 34.8064 193.23 34.8064H183.41C183.351 34.8064 183.304 34.759 183.304 34.701C183.304 34.643 183.351 34.5956 183.41 34.5956H193.23C195.316 34.5956 197.014 36.2788 197.014 38.3478V38.5048C197.014 40.5737 195.316 42.2569 193.23 42.2569H184.623C182.653 42.2569 181.051 43.8453 181.051 45.7983C181.051 47.7513 182.653 49.3396 184.623 49.3396H202.618C202.676 49.3396 202.724 49.3871 202.724 49.445C202.724 49.503 202.676 49.5504 202.618 49.5504Z" fill="black"/>
<path d="M169.817 63.8765C169.758 63.8765 169.71 63.829 169.71 63.7711V54.8924C169.71 54.8798 169.713 54.8661 169.718 54.8545L171.07 51.428C172.038 48.9733 174.382 47.3871 177.04 47.3871H178.445C178.504 47.3871 178.551 47.4345 178.551 47.4925C178.551 47.5504 178.504 47.5979 178.445 47.5979H177.04C174.47 47.5979 172.204 49.1314 171.268 51.5049L169.923 54.9124V63.7711C169.923 63.829 169.875 63.8765 169.817 63.8765Z" fill="black"/>
<path d="M191.424 38.6043H184.513C184.455 38.6043 184.407 38.5569 184.407 38.4989C184.407 38.441 184.455 38.3935 184.513 38.3935H191.424C191.482 38.3935 191.53 38.441 191.53 38.4989C191.53 38.5569 191.482 38.6043 191.424 38.6043Z" fill="black"/>
<path d="M212.876 45.5409H188.793C188.735 45.5409 188.687 45.4934 188.687 45.4355C188.687 45.3775 188.735 45.3301 188.793 45.3301H212.876C212.934 45.3301 212.982 45.3775 212.982 45.4355C212.982 45.4934 212.934 45.5409 212.876 45.5409Z" fill="black"/>
<path d="M144.124 45.0251H132.125C132.067 45.0251 132.019 44.9777 132.019 44.9197C132.019 44.8617 132.067 44.8143 132.125 44.8143H144.124C144.182 44.8143 144.23 44.8617 144.23 44.9197C144.23 44.9777 144.182 45.0251 144.124 45.0251Z" fill="black"/>
<path d="M150.313 30.6098H142.97C142.912 30.6098 142.864 30.5624 142.864 30.5044C142.864 30.4465 142.912 30.399 142.97 30.399H150.313C150.372 30.399 150.42 30.4465 150.42 30.5044C150.42 30.5624 150.372 30.6098 150.313 30.6098Z" fill="black"/>
<path d="M173.084 11.3218C171.918 11.3218 170.969 10.3806 170.969 9.22436C170.969 8.06815 171.918 7.12695 173.084 7.12695C174.25 7.12695 175.199 8.06815 175.199 9.22436C175.199 10.3806 174.25 11.3218 173.084 11.3218ZM173.084 7.33775C172.035 7.33775 171.181 8.18409 171.181 9.22436C171.181 10.2646 172.035 11.111 173.084 11.111C174.133 11.111 174.986 10.2646 174.986 9.22436C174.986 8.18409 174.133 7.33775 173.084 7.33775Z" fill="black"/>
<path d="M187.824 11.3218C186.658 11.3218 185.708 10.3806 185.708 9.22436C185.708 8.06815 186.658 7.12695 187.824 7.12695C188.99 7.12695 189.939 8.06815 189.939 9.22436C189.939 10.3806 188.99 11.3218 187.824 11.3218ZM187.824 7.33775C186.775 7.33775 185.921 8.18409 185.921 9.22436C185.921 10.2646 186.775 11.111 187.824 11.111C188.873 11.111 189.726 10.2646 189.726 9.22436C189.726 8.18409 188.873 7.33775 187.824 7.33775Z" fill="black"/>
<path d="M169.785 68.1855C168.619 68.1855 167.67 67.2443 167.67 66.088C167.67 64.9318 168.619 63.9906 169.785 63.9906C170.951 63.9906 171.9 64.9318 171.9 66.088C171.9 67.2443 170.951 68.1855 169.785 68.1855ZM169.785 64.2014C168.736 64.2014 167.883 65.0478 167.883 66.088C167.883 67.1283 168.736 67.9747 169.785 67.9747C170.834 67.9747 171.688 67.1283 171.688 66.088C171.688 65.0478 170.834 64.2014 169.785 64.2014Z" fill="black"/>
<path d="M153.372 73C152.206 73 151.257 72.0588 151.257 70.9026C151.257 69.7464 152.206 68.8052 153.372 68.8052C154.538 68.8052 155.488 69.7464 155.488 70.9026C155.488 72.0588 154.538 73 153.372 73ZM153.372 69.016C152.323 69.016 151.47 69.8623 151.47 70.9026C151.47 71.9429 152.323 72.7892 153.372 72.7892C154.421 72.7892 155.275 71.9429 155.275 70.9026C155.275 69.8623 154.421 69.016 153.372 69.016Z" fill="black"/>
<path d="M130.115 47.0171C128.949 47.0171 128 46.0759 128 44.9197C128 43.7635 128.949 42.8223 130.115 42.8223C131.281 42.8223 132.23 43.7635 132.23 44.9197C132.23 46.0759 131.281 47.0171 130.115 47.0171ZM130.115 43.0331C129.066 43.0331 128.213 43.8794 128.213 44.9197C128.213 45.9599 129.066 46.8063 130.115 46.8063C131.164 46.8063 132.018 45.9599 132.018 44.9197C132.018 43.8794 131.164 43.0331 130.115 43.0331Z" fill="black"/>
<path d="M214.885 47.5322C213.719 47.5322 212.77 46.591 212.77 45.4348C212.77 44.2786 213.719 43.3374 214.885 43.3374C216.051 43.3374 217 44.2786 217 45.4348C217 46.591 216.051 47.5322 214.885 47.5322ZM214.885 43.5482C213.836 43.5482 212.983 44.3945 212.983 45.4348C212.983 46.475 213.836 47.3214 214.885 47.3214C215.934 47.3214 216.788 46.475 216.788 45.4348C216.788 44.3945 215.934 43.5482 214.885 43.5482Z" fill="black"/>
<path d="M140.884 32.6032C139.718 32.6032 138.769 31.662 138.769 30.5058C138.769 29.3496 139.718 28.4084 140.884 28.4084C142.05 28.4084 142.999 29.3496 142.999 30.5058C142.999 31.662 142.05 32.6032 140.884 32.6032ZM140.884 28.6192C139.835 28.6192 138.981 29.4655 138.981 30.5058C138.981 31.546 139.835 32.3924 140.884 32.3924C141.933 32.3924 142.786 31.546 142.786 30.5058C142.786 29.4655 141.933 28.6192 140.884 28.6192Z" fill="black"/>
</g>
<defs>
<filter id="filter0_i_2002_165" x="-143" y="132" width="321" height="147" filterUnits="userSpaceOnUse" color-interpolation-filters="sRGB">
<feFlood flood-opacity="0" result="BackgroundImageFix"/>
<feBlend mode="normal" in="SourceGraphic" in2="BackgroundImageFix" result="shape"/>
<feColorMatrix in="SourceAlpha" type="matrix" values="0 0 0 0 0 0 0 0 0 0 0 0 0 0 0 0 0 0 127 0" result="hardAlpha"/>
<feOffset dy="4"/>
<feGaussianBlur stdDeviation="22.45"/>
<feComposite in2="hardAlpha" operator="arithmetic" k2="-1" k3="1"/>
<feColorMatrix type="matrix" values="0 0 0 0 0.576042 0 0 0 0 0.82631 0 0 0 0 0.9875 0 0 0 1 0"/>
<feBlend mode="normal" in2="shape" result="effect1_innerShadow_2002_165"/>
</filter>
<filter id="filter1_i_2002_165" x="201" y="135" width="321" height="147" filterUnits="userSpaceOnUse" color-interpolation-filters="sRGB">
<feFlood flood-opacity="0" result="BackgroundImageFix"/>
<feBlend mode="normal" in="SourceGraphic" in2="BackgroundImageFix" result="shape"/>
<feColorMatrix in="SourceAlpha" type="matrix" values="0 0 0 0 0 0 0 0 0 0 0 0 0 0 0 0 0 0 127 0" result="hardAlpha"/>
<feOffset dy="4"/>
<feGaussianBlur stdDeviation="22.45"/>
<feComposite in2="hardAlpha" operator="arithmetic" k2="-1" k3="1"/>
<feColorMatrix type="matrix" values="0 0 0 0 0.576042 0 0 0 0 0.82631 0 0 0 0 0.9875 0 0 0 1 0"/>
<feBlend mode="normal" in2="shape" result="effect1_innerShadow_2002_165"/>
</filter>
<filter id="filter2_f_2002_165" x="-153.5" y="141.345" width="618" height="268.234" filterUnits="userSpaceOnUse" color-interpolation-filters="sRGB">
<feFlood flood-opacity="0" result="BackgroundImageFix"/>
<feBlend mode="normal" in="SourceGraphic" in2="BackgroundImageFix" result="shape"/>
<feGaussianBlur stdDeviation="28.5" result="effect1_foregroundBlur_2002_165"/>
</filter>
<linearGradient id="paint0_linear_2002_165" x1="63.8295" y1="131.64" x2="63.8295" y2="516.438" gradientUnits="userSpaceOnUse">
<stop stop-color="#02ACE2"/>
<stop offset="1" stop-color="white"/>
</linearGradient>
<radialGradient id="paint1_radial_2002_165" cx="0" cy="0" r="1" gradientUnits="userSpaceOnUse" gradientTransform="translate(177.5 347.445) rotate(-90) scale(119.735 333.693)">
<stop stop-color="white"/>
<stop offset="1" stop-color="#3197F7"/>
</radialGradient>
<clipPath id="clip0_2002_165">
<rect width="346" height="258" rx="12" fill="white"/>
</clipPath>
</defs>
</svg>
