<svg width="190" height="148" viewBox="0 0 190 148" fill="none" xmlns="http://www.w3.org/2000/svg">
<path d="M186.265 117.004C186.265 92.3035 176.453 68.6148 158.987 51.149C141.522 33.6833 117.833 23.8711 93.1327 23.8711C68.4324 23.8711 44.7437 33.6833 27.2779 51.149C9.81217 68.6148 3.72965e-06 92.3035 0 117.004L93.1327 117.004H186.265Z" fill="url(#paint0_linear_1_2923)"/>
<path d="M87.8104 117.668L1.33008 117.003L49.2269 42.4971L87.8104 117.668Z" fill="url(#paint1_linear_1_2923)" fill-opacity="0.34"/>
<path d="M91.8017 115.008L185.6 117.004L135.042 44.4932L91.8017 115.008Z" fill="url(#paint2_linear_1_2923)" fill-opacity="0.34"/>
<path d="M89.1414 119.665L47.2322 39.1715L137.038 41.1669L89.1414 119.665Z" fill="url(#paint3_linear_1_2923)" fill-opacity="0.34"/>
<path d="M0.000206506 117.004C0.000208666 92.3037 9.81238 68.615 27.2782 51.1493C44.7439 33.6835 68.4326 23.8713 93.1329 23.8713C117.833 23.8713 141.522 33.6835 158.988 51.1493C176.453 68.615 186.266 92.3037 186.266 117.004L169.245 117.004C169.245 96.8178 161.226 77.4584 146.952 63.1846C132.679 48.9108 113.319 40.8918 93.1329 40.8918C72.9467 40.8918 53.5873 48.9108 39.3135 63.1846C25.0397 77.4584 17.0207 96.8178 17.0207 117.004L0.000206506 117.004Z" fill="#FF284C"/>
<path d="M0.000206506 117.004C0.000207933 100.678 4.29171 84.6394 12.4445 70.4951C20.5973 56.3508 32.325 44.5981 46.4518 36.4151C60.5787 28.2321 76.6084 23.9064 92.9341 23.8715C109.26 23.8367 125.308 28.0939 139.47 36.2165L131.001 50.9809C119.428 44.3427 106.313 40.8635 92.9704 40.892C79.6284 40.9205 66.5282 44.4557 54.983 51.1432C43.4379 57.8306 33.8536 67.4355 27.1908 78.9948C20.5279 90.5542 17.0207 103.662 17.0207 117.004L0.000206506 117.004Z" fill="#FFC72C"/>
<path d="M0.000206506 117.004C0.000207918 100.85 4.20187 84.9741 12.1925 70.935C20.1832 56.8959 31.688 45.1766 45.5772 36.9281L54.2683 51.5624C42.9174 58.3035 33.5151 67.881 26.9848 79.3544C20.4545 90.8277 17.0207 103.802 17.0207 117.004L0.000206506 117.004Z" fill="#00FFA6"/>
<path d="M1.00426 142.783V132.601H2.84872V141.237H7.3331V142.783H1.00426ZM12.142 142.932C11.3962 142.932 10.7499 142.768 10.203 142.44C9.65617 142.112 9.23193 141.653 8.93032 141.063C8.63203 140.473 8.48288 139.784 8.48288 138.995C8.48288 138.206 8.63203 137.515 8.93032 136.922C9.23193 136.328 9.65617 135.868 10.203 135.54C10.7499 135.211 11.3962 135.047 12.142 135.047C12.8877 135.047 13.534 135.211 14.0809 135.54C14.6278 135.868 15.0504 136.328 15.3486 136.922C15.6503 137.515 15.8011 138.206 15.8011 138.995C15.8011 139.784 15.6503 140.473 15.3486 141.063C15.0504 141.653 14.6278 142.112 14.0809 142.44C13.534 142.768 12.8877 142.932 12.142 142.932ZM12.1519 141.491C12.5563 141.491 12.8943 141.38 13.1661 141.157C13.4379 140.932 13.6401 140.631 13.7727 140.253C13.9085 139.875 13.9765 139.454 13.9765 138.99C13.9765 138.523 13.9085 138.1 13.7727 137.722C13.6401 137.341 13.4379 137.038 13.1661 136.812C12.8943 136.587 12.5563 136.474 12.1519 136.474C11.7376 136.474 11.3929 136.587 11.1178 136.812C10.846 137.038 10.6422 137.341 10.5063 137.722C10.3737 138.1 10.3075 138.523 10.3075 138.99C10.3075 139.454 10.3737 139.875 10.5063 140.253C10.6422 140.631 10.846 140.932 11.1178 141.157C11.3929 141.38 11.7376 141.491 12.1519 141.491ZM18.6424 142.783L16.4848 135.147H18.3193L19.6616 140.516H19.7312L21.1034 135.147H22.918L24.2902 140.486H24.3647L25.6872 135.147H27.5267L25.364 142.783H23.4897L22.0579 137.623H21.9535L20.5217 142.783H18.6424Z" fill="#00D087"/>
<path d="M160.004 142.783V132.601H161.849V136.912H166.567V132.601H168.416V142.783H166.567V138.458H161.849V142.783H160.004ZM170.299 142.783V135.147H172.099V142.783H170.299ZM171.204 134.063C170.919 134.063 170.674 133.969 170.468 133.78C170.263 133.587 170.16 133.357 170.16 133.089C170.16 132.817 170.263 132.586 170.468 132.398C170.674 132.205 170.919 132.109 171.204 132.109C171.492 132.109 171.738 132.205 171.94 132.398C172.145 132.586 172.248 132.817 172.248 133.089C172.248 133.357 172.145 133.587 171.94 133.78C171.738 133.969 171.492 134.063 171.204 134.063ZM177.227 145.806C176.581 145.806 176.026 145.718 175.562 145.542C175.098 145.37 174.725 145.138 174.443 144.846C174.161 144.555 173.966 144.232 173.857 143.877L175.477 143.484C175.55 143.633 175.656 143.781 175.795 143.927C175.935 144.076 176.122 144.198 176.357 144.295C176.596 144.394 176.896 144.444 177.257 144.444C177.768 144.444 178.19 144.319 178.525 144.071C178.86 143.826 179.027 143.421 179.027 142.858V141.411H178.938C178.845 141.597 178.709 141.787 178.53 141.983C178.354 142.178 178.121 142.342 177.829 142.475C177.541 142.608 177.178 142.674 176.74 142.674C176.153 142.674 175.621 142.536 175.144 142.261C174.67 141.983 174.292 141.568 174.011 141.018C173.732 140.465 173.593 139.772 173.593 138.94C173.593 138.102 173.732 137.394 174.011 136.817C174.292 136.237 174.672 135.798 175.149 135.5C175.626 135.198 176.158 135.047 176.745 135.047C177.192 135.047 177.56 135.124 177.849 135.276C178.14 135.425 178.372 135.606 178.545 135.818C178.717 136.027 178.848 136.224 178.938 136.41H179.037V135.147H180.812V142.907C180.812 143.56 180.656 144.101 180.344 144.528C180.033 144.956 179.607 145.276 179.067 145.488C178.527 145.7 177.913 145.806 177.227 145.806ZM177.242 141.262C177.623 141.262 177.948 141.169 178.217 140.983C178.485 140.798 178.689 140.531 178.828 140.183C178.967 139.835 179.037 139.417 179.037 138.93C179.037 138.45 178.967 138.029 178.828 137.667C178.692 137.306 178.49 137.026 178.222 136.827C177.956 136.625 177.63 136.524 177.242 136.524C176.841 136.524 176.506 136.628 176.238 136.837C175.969 137.046 175.767 137.333 175.631 137.697C175.496 138.059 175.428 138.47 175.428 138.93C175.428 139.398 175.496 139.807 175.631 140.158C175.771 140.506 175.974 140.778 176.243 140.974C176.515 141.166 176.848 141.262 177.242 141.262ZM184.413 138.309V142.783H182.613V132.601H184.373V136.444H184.462C184.641 136.014 184.918 135.674 185.293 135.425C185.67 135.173 186.151 135.047 186.734 135.047C187.265 135.047 187.727 135.158 188.121 135.381C188.516 135.603 188.821 135.927 189.036 136.355C189.255 136.782 189.364 137.305 189.364 137.921V142.783H187.565V138.199C187.565 137.686 187.432 137.286 187.167 137.001C186.905 136.713 186.537 136.569 186.063 136.569C185.745 136.569 185.46 136.638 185.208 136.778C184.959 136.913 184.764 137.111 184.621 137.369C184.482 137.628 184.413 137.941 184.413 138.309Z" fill="#FF284C"/>
<defs>
<linearGradient id="paint0_linear_1_2923" x1="93.1327" y1="23.8711" x2="93.1327" y2="103.699" gradientUnits="userSpaceOnUse">
<stop stop-color="white"/>
<stop offset="1" stop-color="white" stop-opacity="0"/>
</linearGradient>
<linearGradient id="paint1_linear_1_2923" x1="29.2699" y1="76.424" x2="83.1538" y2="112.347" gradientUnits="userSpaceOnUse">
<stop stop-color="#03BF69"/>
<stop offset="1" stop-color="white" stop-opacity="0"/>
</linearGradient>
<linearGradient id="paint2_linear_1_2923" x1="153.003" y1="79.0853" x2="99.1193" y2="115.008" gradientUnits="userSpaceOnUse">
<stop stop-color="#FF284C"/>
<stop offset="1" stop-color="white" stop-opacity="0"/>
</linearGradient>
<linearGradient id="paint3_linear_1_2923" x1="96.2555" y1="43.7434" x2="92.0876" y2="108.37" gradientUnits="userSpaceOnUse">
<stop stop-color="#FFC72C"/>
<stop offset="1" stop-color="white" stop-opacity="0"/>
</linearGradient>
</defs>
</svg>
