<svg width="19" height="94" viewBox="0 0 19 94" fill="none" xmlns="http://www.w3.org/2000/svg">
<path d="M18.469 83.9167L14.243 6.2663C14.0517 2.75176 11.1461 0 7.6264 0C3.96674 0 1 2.96673 1 6.62639V84.3917C1 89.2192 4.91347 93.1327 9.74097 93.1327C14.7551 93.1327 18.7415 88.9235 18.469 83.9167Z" fill="#D9D9D9"/>
<path d="M18.469 83.9167L14.243 6.2663C14.0517 2.75176 11.1461 0 7.6264 0C3.96674 0 1 2.96673 1 6.62639V84.3917C1 89.2192 4.91347 93.1327 9.74097 93.1327C14.7551 93.1327 18.7415 88.9235 18.469 83.9167Z" fill="url(#paint0_linear_2021_777)"/>
<circle cx="9.64804" cy="84.648" r="8.64804" fill="url(#paint1_radial_2021_777)"/>
<defs>
<linearGradient id="paint0_linear_2021_777" x1="-13.7332" y1="-7.11114" x2="-13.2008" y2="163.553" gradientUnits="userSpaceOnUse">
<stop stop-color="#030303"/>
<stop offset="1" stop-opacity="0"/>
</linearGradient>
<radialGradient id="paint1_radial_2021_777" cx="0" cy="0" r="1" gradientUnits="userSpaceOnUse" gradientTransform="translate(9.64804 84.648) rotate(90) scale(8.64804)">
<stop stop-color="#D9D9D9"/>
<stop offset="1" stop-color="white"/>
</radialGradient>
</defs>
</svg>
