<svg width="190" height="147" viewBox="0 0 190 147" fill="none" xmlns="http://www.w3.org/2000/svg">
<path d="M186.265 116.221C186.265 91.5203 176.453 67.8316 158.987 50.3658C141.522 32.9001 117.833 23.0879 93.1327 23.0879C68.4324 23.0879 44.7437 32.9001 27.2779 50.3658C9.81217 67.8316 3.72965e-06 91.5202 0 116.221L93.1327 116.221H186.265Z" fill="url(#paint0_linear_2021_771)"/>
<path d="M87.8104 116.885L1.33008 116.22L49.2269 41.7139L87.8104 116.885Z" fill="url(#paint1_linear_2021_771)" fill-opacity="0.34"/>
<path d="M91.8017 114.225L185.6 116.22L135.042 43.71L91.8017 114.225Z" fill="url(#paint2_linear_2021_771)" fill-opacity="0.34"/>
<path d="M89.1414 118.881L47.2322 38.3883L137.038 40.3837L89.1414 118.881Z" fill="url(#paint3_linear_2021_771)" fill-opacity="0.34"/>
<path d="M0.000206506 116.221C0.000208666 91.5205 9.81238 67.8318 27.2781 50.3661C44.7439 32.9003 68.4326 23.0881 93.1329 23.0881C117.833 23.0881 141.522 32.9003 158.988 50.3661C176.453 67.8318 186.266 91.5205 186.266 116.221L169.245 116.221C169.245 96.0346 161.226 76.6752 146.952 62.4014C132.679 48.1276 113.319 40.1086 93.1329 40.1086C72.9467 40.1086 53.5873 48.1276 39.3135 62.4014C25.0397 76.6752 17.0207 96.0346 17.0207 116.221L0.000206506 116.221Z" fill="#FF284C"/>
<path d="M0.000206506 116.221C0.000207933 99.8951 4.29171 83.8562 12.4445 69.7119C20.5973 55.5676 32.325 43.8149 46.4518 35.6319C60.5787 27.4489 76.6084 23.1232 92.9341 23.0883C109.26 23.0535 125.308 27.3107 139.47 35.4333L131.001 50.1977C119.428 43.5595 106.313 40.0803 92.9704 40.1088C79.6284 40.1373 66.5282 43.6725 54.9831 50.36C43.4379 57.0474 33.8536 66.6523 27.1908 78.2116C20.5279 89.771 17.0207 102.879 17.0207 116.221L0.000206506 116.221Z" fill="#FFC72C"/>
<path d="M0.000206506 116.221C0.000207918 100.067 4.20186 84.1909 12.1925 70.1518C20.1832 56.1127 31.688 44.3934 45.5772 36.1449L54.2683 50.7792C42.9174 57.5203 33.5151 67.0978 26.9848 78.5712C20.4545 90.0445 17.0207 103.019 17.0207 116.221L0.000206506 116.221Z" fill="#00FFA6"/>
<path d="M1.00426 142V131.818H2.84872V140.454H7.3331V142H1.00426ZM12.142 142.149C11.3962 142.149 10.7499 141.985 10.203 141.657C9.65617 141.329 9.23193 140.87 8.93032 140.28C8.63203 139.69 8.48288 139 8.48288 138.212C8.48288 137.423 8.63203 136.732 8.93032 136.138C9.23193 135.545 9.65617 135.085 10.203 134.756C10.7499 134.428 11.3962 134.264 12.142 134.264C12.8877 134.264 13.534 134.428 14.0809 134.756C14.6278 135.085 15.0504 135.545 15.3486 136.138C15.6503 136.732 15.8011 137.423 15.8011 138.212C15.8011 139 15.6503 139.69 15.3486 140.28C15.0504 140.87 14.6278 141.329 14.0809 141.657C13.534 141.985 12.8877 142.149 12.142 142.149ZM12.1519 140.707C12.5563 140.707 12.8943 140.596 13.1661 140.374C13.4379 140.149 13.6401 139.847 13.7727 139.469C13.9085 139.092 13.9765 138.671 13.9765 138.207C13.9765 137.739 13.9085 137.317 13.7727 136.939C13.6401 136.558 13.4379 136.254 13.1661 136.029C12.8943 135.804 12.5563 135.691 12.1519 135.691C11.7376 135.691 11.3929 135.804 11.1178 136.029C10.846 136.254 10.6422 136.558 10.5063 136.939C10.3737 137.317 10.3075 137.739 10.3075 138.207C10.3075 138.671 10.3737 139.092 10.5063 139.469C10.6422 139.847 10.846 140.149 11.1178 140.374C11.3929 140.596 11.7376 140.707 12.1519 140.707ZM18.6424 142L16.4848 134.364H18.3193L19.6616 139.733H19.7312L21.1034 134.364H22.918L24.2902 139.703H24.3647L25.6872 134.364H27.5267L25.364 142H23.4897L22.0579 136.839H21.9535L20.5217 142H18.6424Z" fill="#00D087"/>
<path d="M160.004 142V131.818H161.849V136.129H166.567V131.818H168.416V142H166.567V137.675H161.849V142H160.004ZM170.299 142V134.364H172.099V142H170.299ZM171.204 133.28C170.919 133.28 170.674 133.185 170.468 132.996C170.263 132.804 170.16 132.574 170.16 132.305C170.16 132.034 170.263 131.803 170.468 131.614C170.674 131.422 170.919 131.326 171.204 131.326C171.492 131.326 171.738 131.422 171.94 131.614C172.145 131.803 172.248 132.034 172.248 132.305C172.248 132.574 172.145 132.804 171.94 132.996C171.738 133.185 171.492 133.28 171.204 133.28ZM177.227 145.023C176.581 145.023 176.026 144.935 175.562 144.759C175.098 144.587 174.725 144.355 174.443 144.063C174.161 143.772 173.966 143.448 173.857 143.094L175.477 142.701C175.55 142.85 175.656 142.998 175.795 143.143C175.935 143.293 176.122 143.415 176.357 143.511C176.596 143.611 176.896 143.661 177.257 143.661C177.768 143.661 178.19 143.536 178.525 143.288C178.86 143.042 179.027 142.638 179.027 142.075V140.628H178.938C178.845 140.813 178.709 141.004 178.53 141.2C178.354 141.395 178.121 141.559 177.829 141.692C177.541 141.824 177.178 141.891 176.74 141.891C176.153 141.891 175.621 141.753 175.144 141.478C174.67 141.2 174.292 140.785 174.011 140.235C173.732 139.682 173.593 138.989 173.593 138.157C173.593 137.318 173.732 136.611 174.011 136.034C174.292 135.454 174.672 135.015 175.149 134.717C175.626 134.415 176.158 134.264 176.745 134.264C177.192 134.264 177.56 134.34 177.849 134.493C178.14 134.642 178.372 134.823 178.545 135.035C178.717 135.244 178.848 135.441 178.938 135.626H179.037V134.364H180.812V142.124C180.812 142.777 180.656 143.317 180.344 143.745C180.033 144.173 179.607 144.492 179.067 144.705C178.527 144.917 177.913 145.023 177.227 145.023ZM177.242 140.479C177.623 140.479 177.948 140.386 178.217 140.2C178.485 140.015 178.689 139.748 178.828 139.4C178.967 139.052 179.037 138.634 179.037 138.147C179.037 137.666 178.967 137.246 178.828 136.884C178.692 136.523 178.49 136.243 178.222 136.044C177.956 135.842 177.63 135.741 177.242 135.741C176.841 135.741 176.506 135.845 176.238 136.054C175.969 136.263 175.767 136.549 175.631 136.914C175.496 137.275 175.428 137.686 175.428 138.147C175.428 138.614 175.496 139.024 175.631 139.375C175.771 139.723 175.974 139.995 176.243 140.19C176.515 140.383 176.848 140.479 177.242 140.479ZM184.413 137.526V142H182.613V131.818H184.373V135.661H184.462C184.641 135.23 184.918 134.891 185.293 134.642C185.67 134.39 186.151 134.264 186.734 134.264C187.265 134.264 187.727 134.375 188.121 134.597C188.516 134.819 188.821 135.144 189.036 135.572C189.255 135.999 189.364 136.521 189.364 137.138V142H187.565V137.416C187.565 136.902 187.432 136.503 187.167 136.218C186.905 135.93 186.537 135.786 186.063 135.786C185.745 135.786 185.46 135.855 185.208 135.994C184.959 136.13 184.764 136.327 184.621 136.586C184.482 136.844 184.413 137.158 184.413 137.526Z" fill="#FF284C"/>
<path d="M97.7615 107.444L96.0814 29.6967C96.0054 26.1778 93.1915 23.3324 89.6736 23.2171C86.0159 23.0972 82.9536 25.9651 82.8337 29.6228L80.2863 107.346C80.1281 112.171 83.9113 116.211 88.7362 116.369C93.7477 116.533 97.8698 112.457 97.7615 107.444Z" fill="url(#paint4_linear_2021_771)"/>
<path d="M97.7615 107.444L96.0814 29.6967C96.0054 26.1778 93.1915 23.3324 89.6736 23.2171C86.0159 23.0972 82.9536 25.9651 82.8337 29.6228L80.2863 107.346C80.1281 112.171 83.9113 116.211 88.7362 116.369C93.7477 116.533 97.8698 112.457 97.7615 107.444Z" fill="url(#paint5_linear_2021_771)"/>
<circle cx="89.1807" cy="107.754" r="8.64804" transform="rotate(0.174731 89.1807 107.754)" fill="url(#paint6_radial_2021_771)"/>
<defs>
<linearGradient id="paint0_linear_2021_771" x1="93.1327" y1="23.0879" x2="93.1327" y2="102.916" gradientUnits="userSpaceOnUse">
<stop stop-color="white"/>
<stop offset="1" stop-color="white" stop-opacity="0"/>
</linearGradient>
<linearGradient id="paint1_linear_2021_771" x1="29.2699" y1="75.6408" x2="83.1538" y2="111.563" gradientUnits="userSpaceOnUse">
<stop stop-color="#03BF69"/>
<stop offset="1" stop-color="white" stop-opacity="0"/>
</linearGradient>
<linearGradient id="paint2_linear_2021_771" x1="153.003" y1="78.3021" x2="99.1193" y2="114.225" gradientUnits="userSpaceOnUse">
<stop stop-color="#FF284C"/>
<stop offset="1" stop-color="white" stop-opacity="0"/>
</linearGradient>
<linearGradient id="paint3_linear_2021_771" x1="96.2555" y1="42.9602" x2="92.0876" y2="107.586" gradientUnits="userSpaceOnUse">
<stop stop-color="#FFC72C"/>
<stop offset="1" stop-color="white" stop-opacity="0"/>
</linearGradient>
<linearGradient id="paint4_linear_2021_771" x1="60.9356" y1="14.5001" x2="57.8457" y2="108.773" gradientUnits="userSpaceOnUse">
<stop stop-color="#030303"/>
<stop offset="1" stop-opacity="0"/>
</linearGradient>
<linearGradient id="paint5_linear_2021_771" x1="60.9356" y1="14.5001" x2="57.8457" y2="108.773" gradientUnits="userSpaceOnUse">
<stop stop-color="#030303"/>
<stop offset="1" stop-opacity="0"/>
</linearGradient>
<radialGradient id="paint6_radial_2021_771" cx="0" cy="0" r="1" gradientUnits="userSpaceOnUse" gradientTransform="translate(89.1807 107.754) rotate(90) scale(8.64804)">
<stop stop-color="#D9D9D9"/>
<stop offset="1" stop-color="white"/>
</radialGradient>
</defs>
</svg>
